<svg xmlns="http://www.w3.org/2000/svg" version="1.1" width="637px" height="580px" style="shape-rendering:geometricPrecision; text-rendering:geometricPrecision; image-rendering:optimizeQuality; fill-rule:evenodd; clip-rule:evenodd" xmlns:xlink="http://www.w3.org/1999/xlink">
<g><path style="opacity:0.004" fill="#0000ff" d="M 72.5,0.5 C 73.8333,1.16667 73.8333,1.16667 72.5,0.5 Z"/></g>
<g><path style="opacity:0.004" fill="#0000ff" d="M 232.5,0.5 C 233.833,1.16667 233.833,1.16667 232.5,0.5 Z"/></g>
<g><path style="opacity:0.004" fill="#fefffe" d="M 468.5,35.5 C 469.833,36.1667 469.833,36.1667 468.5,35.5 Z"/></g>
<g><path style="opacity:0.004" fill="#fefffe" d="M 595.5,39.5 C 596.833,40.1667 596.833,40.1667 595.5,39.5 Z"/></g>
<g><path style="opacity:0.004" fill="#fefffe" d="M 367.5,43.5 C 368.833,44.1667 368.833,44.1667 367.5,43.5 Z"/></g>
<g><path style="opacity:0.004" fill="#fefffe" d="M 64.5,46.5 C 65.8333,47.1667 65.8333,47.1667 64.5,46.5 Z"/></g>
<g><path style="opacity:0.004" fill="#fefffe" d="M 250.5,47.5 C 251.833,48.1667 251.833,48.1667 250.5,47.5 Z"/></g>
<g><path style="opacity:0.004" fill="#fefffe" d="M 268.5,55.5 C 269.833,56.1667 269.833,56.1667 268.5,55.5 Z"/></g>
<g><path style="opacity:0.004" fill="#fefffe" d="M 259.5,60.5 C 260.833,61.1667 260.833,61.1667 259.5,60.5 Z"/></g>
<g><path style="opacity:0.996" fill="#b80e0e" d="M 382.5,168.5 C 383.823,166.238 385.157,163.904 386.5,161.5C 387.192,162.025 387.692,162.692 388,163.5C 388.333,163.167 388.667,162.833 389,162.5C 388.112,170.793 387.278,179.126 386.5,187.5C 373.079,276.455 362.912,365.789 356,455.5C 355.392,476.533 355.392,497.533 356,518.5C 355.5,519 355,519.5 354.5,520C 323.167,520.667 291.833,520.667 260.5,520C 259.692,519.692 259.025,519.192 258.5,518.5C 237.205,449.655 216.371,380.655 196,311.5C 195.667,380.5 195.333,449.5 195,518.5C 194.5,519 194,519.5 193.5,520C 152.307,521.063 110.974,521.063 69.5,520C 68.3333,519.5 67.5,518.667 67,517.5C 66.8333,514 66.6667,510.5 66.5,507C 67.493,362.09 67.8263,217.257 67.5,72.5C 120.501,72.3333 173.501,72.5 226.5,73C 228.041,74.5793 229.208,76.4127 230,78.5C 260.813,161.278 291.813,243.944 323,326.5C 342.371,273.54 362.204,220.874 382.5,168.5 Z"/></g>
<g><path style="opacity:0.997" fill="#b80e0e" d="M 426.5,276.5 C 423.871,281.872 421.704,287.539 420,293.5C 420.538,287.212 421.038,280.879 421.5,274.5C 427.639,235.695 433.639,196.862 439.5,158C 439.029,148.834 435.029,141.5 427.5,136C 422.765,132.634 417.765,129.801 412.5,127.5C 408.348,126.982 404.348,125.649 400.5,123.5C 401.505,119.317 403.005,115.317 405,111.5C 405.333,112.167 405.667,112.833 406,113.5C 406.5,112.333 407.333,111.5 408.5,111C 407.376,110.751 406.376,110.251 405.5,109.5C 406.708,105.878 407.708,102.211 408.5,98.5C 411.13,89.7375 414.463,81.2375 418.5,73C 431.966,71.9032 445.466,71.4032 459,71.5C 498.883,72.0693 538.717,72.4026 578.5,72.5C 578.391,110.186 578.558,147.853 579,185.5C 578.107,186.711 577.274,186.711 576.5,185.5C 566.186,153.691 544.519,139.524 511.5,143C 500.121,146.705 490.621,153.205 483,162.5C 467.187,183.78 454.187,206.78 444,231.5C 438.041,246.56 432.208,261.56 426.5,276.5 Z"/></g>
<g><path style="opacity:0.004" fill="#fefffe" d="M 47.5,76.5 C 48.8333,77.1667 48.8333,77.1667 47.5,76.5 Z"/></g>
<g><path style="opacity:0.004" fill="#fefffe" d="M 582.5,93.5 C 583.833,94.1667 583.833,94.1667 582.5,93.5 Z"/></g>
<g><path style="opacity:0.004" fill="#fefffe" d="M 258.5,95.5 C 259.833,96.1667 259.833,96.1667 258.5,95.5 Z"/></g>
<g><path style="opacity:0.004" fill="#fefffe" d="M 41.5,124.5 C 42.8333,125.167 42.8333,125.167 41.5,124.5 Z"/></g>
<g><path style="opacity:0.004" fill="#fefffe" d="M 61.5,156.5 C 62.8333,157.167 62.8333,157.167 61.5,156.5 Z"/></g>
<g><path style="opacity:0.867" fill="#b80e0e" d="M 408.5,98.5 C 407.708,102.211 406.708,105.878 405.5,109.5C 406.376,110.251 407.376,110.751 408.5,111C 407.333,111.5 406.5,112.333 406,113.5C 405.667,112.833 405.333,112.167 405,111.5C 403.005,115.317 401.505,119.317 400.5,123.5C 404.348,125.649 408.348,126.982 412.5,127.5C 404.846,126.243 399.679,129.243 397,136.5C 392.9,153.502 389.4,170.502 386.5,187.5C 387.278,179.126 388.112,170.793 389,162.5C 388.667,162.833 388.333,163.167 388,163.5C 387.692,162.692 387.192,162.025 386.5,161.5C 385.157,163.904 383.823,166.238 382.5,168.5C 390.596,144.872 399.262,121.538 408.5,98.5 Z"/></g>
<g><path style="opacity:0.993" fill="#b80e0e" d="M 570.5,518.5 C 531.004,519.499 491.337,519.832 451.5,519.5C 450.778,519.082 450.278,518.416 450,517.5C 449.833,513.333 449.667,509.167 449.5,505C 450.405,440.485 450.571,375.985 450,311.5C 434.23,364.299 418.397,416.965 402.5,469.5C 401.207,470.842 400.374,472.509 400,474.5C 399.833,473.333 399.667,472.167 399.5,471C 401.158,462.877 402.492,454.71 403.5,446.5C 416.172,388.979 432.006,332.312 451,276.5C 459.593,252.383 469.927,229.05 482,206.5C 489.576,191.921 499.743,179.421 512.5,169C 524.844,164.258 532.677,168.425 536,181.5C 537.527,190.602 538.36,199.769 538.5,209C 534.582,267.185 530.415,325.352 526,383.5C 523.945,411.815 525.945,439.815 532,467.5C 535.84,483.69 543.674,497.523 555.5,509C 560.227,512.691 565.227,515.858 570.5,518.5 Z"/></g>
<g><path style="opacity:0.004" fill="#fefffe" d="M 291.5,168.5 C 292.833,169.167 292.833,169.167 291.5,168.5 Z"/></g>
<g><path style="opacity:0.004" fill="#fefffe" d="M 315.5,189.5 C 316.833,190.167 316.833,190.167 315.5,189.5 Z"/></g>
<g><path style="opacity:0.004" fill="#fefffe" d="M 601.5,190.5 C 602.833,191.167 602.833,191.167 601.5,190.5 Z"/></g>
<g><path style="opacity:0.004" fill="#fefffe" d="M 545.5,191.5 C 546.833,192.167 546.833,192.167 545.5,191.5 Z"/></g>
<g><path style="opacity:0.004" fill="#fefffe" d="M 318.5,247.5 C 319.833,248.167 319.833,248.167 318.5,247.5 Z"/></g>
<g><path style="opacity:0.004" fill="#fefffe" d="M 327.5,264.5 C 328.833,265.167 328.833,265.167 327.5,264.5 Z"/></g>
<g><path style="opacity:0.004" fill="#fefffe" d="M 391.5,264.5 C 392.833,265.167 392.833,265.167 391.5,264.5 Z"/></g>
<g><path style="opacity:0.004" fill="#fefffe" d="M 544.5,271.5 C 545.833,272.167 545.833,272.167 544.5,271.5 Z"/></g>
<g><path style="opacity:0.4" fill="#4a414a" d="M 421.5,274.5 C 421.038,280.879 420.538,287.212 420,293.5C 421.704,287.539 423.871,281.872 426.5,276.5C 424.906,282.12 423.406,287.787 422,293.5C 421.313,295.555 420.146,297.221 418.5,298.5C 418.167,297.5 417.833,296.5 417.5,295.5C 418.661,288.328 419.994,281.328 421.5,274.5 Z"/></g>
<g><path style="opacity:0.004" fill="#fefffe" d="M 554.5,303.5 C 555.833,304.167 555.833,304.167 554.5,303.5 Z"/></g>
<g><path style="opacity:0.004" fill="#fefffe" d="M 586.5,355.5 C 587.833,356.167 587.833,356.167 586.5,355.5 Z"/></g>
<g><path style="opacity:0.004" fill="#fefffe" d="M 401.5,384.5 C 402.833,385.167 402.833,385.167 401.5,384.5 Z"/></g>
<g><path style="opacity:0.004" fill="#fefffe" d="M 546.5,406.5 C 547.833,407.167 547.833,407.167 546.5,406.5 Z"/></g>
<g><path style="opacity:0.004" fill="#fefffe" d="M 590.5,407.5 C 591.833,408.167 591.833,408.167 590.5,407.5 Z"/></g>
<g><path style="opacity:0.004" fill="#fefffe" d="M 217.5,410.5 C 218.833,411.167 218.833,411.167 217.5,410.5 Z"/></g>
<g><path style="opacity:0.004" fill="#fefffe" d="M 416.5,437.5 C 417.833,438.167 417.833,438.167 416.5,437.5 Z"/></g>
<g><path style="opacity:0.004" fill="#fefffe" d="M 10.5,445.5 C 11.8333,446.167 11.8333,446.167 10.5,445.5 Z"/></g>
<g><path style="opacity:0.492" fill="#b80e0e" d="M 403.5,446.5 C 402.492,454.71 401.158,462.877 399.5,471C 399.667,472.167 399.833,473.333 400,474.5C 400.374,472.509 401.207,470.842 402.5,469.5C 402.283,473.985 400.783,477.985 398,481.5C 398.117,469.468 399.951,457.801 403.5,446.5 Z"/></g>
<g><path style="opacity:0.004" fill="#fefffe" d="M 404.5,478.5 C 405.833,479.167 405.833,479.167 404.5,478.5 Z"/></g>
<g><path style="opacity:0.004" fill="#fefffe" d="M 434.5,491.5 C 435.833,492.167 435.833,492.167 434.5,491.5 Z"/></g>
<g><path style="opacity:0.004" fill="#0000ff" d="M 0.5,496.5 C 1.83333,497.167 1.83333,497.167 0.5,496.5 Z"/></g>
<g><path style="opacity:0.004" fill="#fefffe" d="M 612.5,508.5 C 613.833,509.167 613.833,509.167 612.5,508.5 Z"/></g>
<g><path style="opacity:0.06" fill="#b80e0e" d="M 570.5,518.5 C 571.043,518.56 571.376,518.893 571.5,519.5C 531.335,520.831 491.335,520.831 451.5,519.5C 491.337,519.832 531.004,519.499 570.5,518.5 Z"/></g>
<g><path style="opacity:0.004" fill="#fefffe" d="M 239.5,521.5 C 240.833,522.167 240.833,522.167 239.5,521.5 Z"/></g>
<g><path style="opacity:0.004" fill="#fefffe" d="M 398.5,536.5 C 399.833,537.167 399.833,537.167 398.5,536.5 Z"/></g>
<g><path style="opacity:0.004" fill="#fefffe" d="M 383.5,549.5 C 384.833,550.167 384.833,550.167 383.5,549.5 Z"/></g>
<g><path style="opacity:0.004" fill="#fefffe" d="M 72.5,565.5 C 73.8333,566.167 73.8333,566.167 72.5,565.5 Z"/></g>
<g><path style="opacity:0.004" fill="#fefffe" d="M 352.5,567.5 C 353.833,568.167 353.833,568.167 352.5,567.5 Z"/></g>
<g><path style="opacity:0.004" fill="#fefffe" d="M 258.5,568.5 C 259.833,569.167 259.833,569.167 258.5,568.5 Z"/></g>
<g><path style="opacity:0.004" fill="#fefffe" d="M 375.5,573.5 C 376.833,574.167 376.833,574.167 375.5,573.5 Z"/></g>
</svg>
